# xmcd CD database file
#
# Track frame offsets:
#	150
#	19600
#	42894
#	61799
#	86817
#	108438
#	132271
#	152609
#	175590
#	195691
#	215910
#	237771
#	255405
#	276129
#
# Disc length: 4001 seconds
#
# Revision: 0
# Processed by: cddbd v1.5.1PL0 Copyright (c) Steve Scherf et al.
# Submitted via: CDex 1.51
#
DISCID=b80f9f0e
DTITLE=Various Artist - Coleccion de estrellas Caribe
DYEAR=2004
DGENRE=Salsa
TTITLE0=Celia Cruz -Oye Come Va
TTITLE1=Willie Colon-Idilio
TTITLE2=Johnny Ventura-Pitaste
TTITLE3=Gilberto Santa Rosa-Conciecia
TTITLE4=Sergio Vargas-La Ventanita
TTITLE5=Grupo Niche-Una Aventura
TTITLE6=Albita-Que Manera de Quererte
TTITLE7=Victor Manuelle-Hay que poner el alma
TTITLE8=Elvis Crespo-Suavemente
TTITLE9=Luis Enrique-Tu no le aman, le temes
TTITLE10=Rey Ruiz-No me acostumbro
TTITLE11=Milly Quezada-Mesita de noche
TTITLE12=Jerry Rivera-Casi un Hechizo
TTITLE13=Willy Chirino-Soy Guajiro
EXTD=YEAR: 2004
EXTT0=
EXTT1=
EXTT2=
EXTT3=
EXTT4=
EXTT5=
EXTT6=
EXTT7=
EXTT8=
EXTT9=
EXTT10=
EXTT11=
EXTT12=
EXTT13=
PLAYORDER=
